<svg shape-rendering="geometricPrecision" image-rendering="optimizeQuality" text-rendering="geometricPrecision" xmlns="http://www.w3.org/2000/svg" width="154" height="35.2" viewBox="0 0 154 35.2">
	<path d="M0 0h154v35.2H0V0z" fill="none"/>
	<path d="M20.9 5.9c-1.4-2.5-3.8-4.2-6.5-4.7.4.3.8.7 1.1 1.2.4.7.7 1.6.7 2.6 0 .9-.2 1.8-.5 2.7v.1l-.1.3c-.4 1.1-1.1 2.3-2 3.2l-.1.1c-.1.1-.2.3-.3.5-.8 1.2-1.2 2.6-.9 4 .2 1.1.8 2 1.7 2.6 2 1.4 4.9.7 6.4-1.6.1-.1.2-.2.2-.3 2-3.4 2.2-7.4.3-10.7z" fill="#00abe7"/>
	<g>
		<path fill="#00abe7" d="M15.1 24.9c-1.1-1.2-2.2-2.1-3.4-3.1-.5-.4-.9-.8-1.4-1.1-.4-.4-.8-.7-1.3-1.2-.3-.3-.6-.6-.9-1-.1-.2-.3-.3-.4-.5-.1-.2-.3-.3-.4-.5-.2-.2-.3-.4-.5-.7-.1-.1-.2-.2-.3-.4-1.5-2.1-2.3-4.5-2.5-7v-.5c0-1.8.5-3.6 1.5-5-2.2 1.9-3.6 4.5-4.2 7.8C.2 19.1 3.7 28 6.8 31.5c.1.1.5.6.7.7 2.7 2.7 6.6 3.1 8.7 1 1.9-1.9 1.5-5.6-1.1-8.3z"/>
		<path fill="#ee7400" d="M6.1 4c-1 1.4-1.5 3.2-1.5 5v.5c.1 2.3 1 4.7 2.4 6.7v.1c.1.1.2.2.2.3.1.2.3.4.4.6.1.2.3.3.4.5l.3.3c.1.1.2.2.3.4-.6-1.3-.8-2.7-.7-4.3v-.2c.2-2.2 1.1-4.3 2.6-5.6 1-.9 2.2-1.3 3.4-1.2.5 0 .9.1 1.4.3.2-.8.4-1.5.4-2.2 0-.9-.2-1.8-.6-2.4-.3-.5-.6-.8-1-1.1 0 0-.1 0-.1-.1-.1 0-.1-.1-.2-.1-.4-.3-1-.4-1.7-.4-.8 0-1.8.2-2.7.5-.1 0-.1.1-.2.1-1.4.6-2.6 1.4-3.1 2.3z"/>
	</g>
	<path d="M49.8 14.3c3.2 0 5.6 1.9 5.6 5.2 0 3.4-2.4 5.2-5.6 5.2s-5.6-1.8-5.6-5.2 2.4-5.2 5.6-5.2zm0 8.5c1.2 0 2.6-1 2.6-3.3 0-2.4-1.4-3.3-2.6-3.3-1.3 0-2.6 1-2.6 3.3 0 2.4 1.4 3.3 2.6 3.3zm26.7-8.3h-9.2c-.1 0-.2.1-.2.2v1.5c0 .1.1.2.2.2h3.2v8c0 .1.1.2.2.2h2.4c.1 0 .2-.1.2-.2v-8h3.2c.1 0 .2-.1.2-.2v-1.5c.1-.1-.1-.2-.2-.2zM65.6 24.6c.1 0 .2-.1.2-.2v-1.5c0-.1-.1-.2-.2-.2h-2.2c-2 0-3.3-1.2-3.3-3 0-2 1.5-3.1 3.4-3.1h2c.1 0 .2-.1.2-.2v-1.6c0-.1-.1-.2-.2-.2H63c-3.9 0-5.9 2.3-5.9 5s1.9 5.2 5.8 5.2h2.7zm58.7-.2l-4.4-5.1 3.4-4.1.2-.2.2-.3c.1-.1 0-.2-.1-.2h-2.7c-.1 0-.2.1-.3.1l-3.4 4.5h-.1v-4.4c0-.1-.1-.2-.2-.2h-2.4c-.1 0-.2.1-.2.2v9.7c0 .1.1.2.2.2h2.4c.1 0 .2-.1.2-.2v-4.6h.1l3.5 4.7c.1.1.2.2.4.2h3c.2-.1.2-.2.2-.3zM37.8 10.9h-3.3c-.6.1-1 .5-1 1v12.5c0 .1.1.2.2.2h2.5c.1 0 .2-.1.2-.2v-4.9h1.9c3.7 0 5.1-2.5 5.1-4.3.1-.9-.2-4.3-5.6-4.3zm0 6.4h-1.4v-4.2h1.4c1.7 0 2.5.9 2.5 2.1 0 .9-.7 2.1-2.5 2.1zm61.6-2.8h-7.3c-.7 0-1.2.5-1.2 1.2v3.9c0 2-.8 3.1-2.2 3.1h-.1c-.1 0-.2.1-.2.2v1.6c0 .1.1.2.2.2h.6c1.5 0 4.2-.7 4.2-5.1v-3.1h3.4v8c0 .1.1.2.2.2h2.4c.1 0 .2-.1.2-.2v-9.7c0-.2-.1-.3-.2-.3zm51.7 1.8v-.7c0-.6-.6-1.2-1.2-1.2h-2.2c-.1 0-.2.1-.3.2l-3.2 4.6-3.1-4.6c-.1-.2-.3-.2-.4-.2h-2.1c-.7 0-1.2.5-1.2 1.2v8.8c0 .1.1.2.2.2h2.4c.1 0 .2-.1.2-.2v-5.5l-.1-2.1h.1l3.7 5.5c.2.3.5.3.7 0l3.7-5.5h.1l-.1 2.1v5.5c0 .1.1.2.2.2h2.4c.1 0 .2-.1.2-.2v-8.1zm-21.3-2c3.2 0 5.6 1.9 5.6 5.2 0 3.4-2.4 5.2-5.6 5.2-3.2 0-5.6-1.8-5.6-5.2s2.4-5.2 5.6-5.2zm0 8.5c1.2 0 2.6-1 2.6-3.3 0-2.4-1.4-3.3-2.6-3.3s-2.6 1-2.6 3.3c0 2.4 1.4 3.3 2.6 3.3zm-43.3-.2h-2.3c-1.9 0-3.5-1-3.6-2.3h6c.7 0 1.2-.5 1.2-1.1V19c-.1-1.6-.8-4.7-4.9-4.7-2.9 0-5.3 2-5.3 5.2 0 3.6 3.2 5.1 6.5 5.1h2.4c.1 0 .2-.1.2-.2v-1.6c.1-.1-.1-.2-.2-.2zm-3.7-6.5c1.1 0 2.3.7 2.2 2.4h-4.5c.1-1.3 1-2.4 2.3-2.4zm28 6.3s-1.5.1-2.6.1c-1.9 0-3.5-.9-3.6-2.2h6c.7 0 1.2-.5 1.2-1.1-.1-1.5-.6-4.9-4.9-4.9-2.9 0-5.3 2-5.3 5.2 0 3.6 3.2 5.1 6.5 5.1 1.3 0 2.7-.1 2.7-.1.1 0 .2-.1.2-.2v-1.7c.1-.1 0-.2-.2-.2zm-3.9-6.3c1.1 0 2.3.7 2.2 2.4h-4.5c.1-1.3 1-2.4 2.3-2.4z" fill="#000000"/>
</svg>