<svg xmlns="http://www.w3.org/2000/svg" width="564.5" height="349.8" viewBox="0 0 564.5 349.8"><path fill="#F79F1A" d="M564.556 174.841c0 96.615-78.142 174.88-174.514 174.88s-174.515-78.265-174.515-174.88S293.548-.038 389.92-.038s174.636 78.264 174.636 174.88z"/><path fill="#EA001B" d="M349.087 174.841c0 96.615-78.143 174.88-174.515 174.88S.058 271.455.058 174.84 78.2-.038 174.572-.038s174.515 78.264 174.515 174.88z"/><path fill="#FF5F01" d="M282.246 37.15c-40.712 31.962-66.84 81.788-66.84 137.691s26.128 105.73 66.84 137.692c40.712-31.962 66.84-81.789 66.84-137.692S322.959 69.233 282.247 37.15z"/></svg>