<svg xmlns="http://www.w3.org/2000/svg" width="500" height="161.8" viewBox="0 0 500 161.8"><g fill="#0066B2"><path d="M216.5 159.5H176l25.5-157h41zM141.5 2.5l-39 108-4.5-23L84.5 17S83 3 65 3H1L0 5.5s19.5 4 42.5 18l35.5 136h42.5L185.5 3h-44v-.5zM462.5 159.5H500L467.5 3h-33c-15 0-19 11.5-19 11.5l-60.5 145h42.5L406 136h52l4.5 23.5zm-45-55.5L439 45.5l12 58.5h-33.5zM358 40.5L364 7s-18-7-36.5-7C307 0 259 9 259 52c0 40.5 56.5 41 56.5 62 0 21.5-50.5 17.5-67.5 4l-6 35s18 9 46 9 70-14.5 70-53.5C358 68 301 64 301 46c0-17.5 39.5-15 57-5.5z"/></g><path fill="#F9A533" d="M98 87.5L84.5 17S83 3 65 3H1L0 5.5S31 12 60.5 36C89 58.5 98 87.5 98 87.5z"/></svg>