<?xml version="1.0" encoding="UTF-8"?>
<svg width="28px" height="28px" viewBox="0 0 28 28" version="1.1" xmlns="http://www.w3.org/2000/svg" xmlns:xlink="http://www.w3.org/1999/xlink">
    <!-- Generator: sketchtool 47.1 (45422) - http://www.bohemiancoding.com/sketch -->
    <title>E6EBAEC9-2BA2-4750-A7E9-D0667B330F26</title>
    <desc>Created with sketchtool.</desc>
    <defs></defs>
    <g id="Услуги" stroke="none" stroke-width="1" fill="none" fill-rule="evenodd">
        <g id="services/phone/new-phone-edit" transform="translate(-1266.000000, -86.000000)" fill="#FFFFFF">
            <path d="M1280,98.6666667 L1268.00585,86.6725168 C1267.63281,86.2994792 1267.03486,86.2984768 1266.66667,86.6666667 C1266.29591,87.0374235 1266.3011,87.6344293 1266.67252,88.0058501 L1278.66667,100 L1266.67252,111.99415 C1266.29948,112.367188 1266.29848,112.965144 1266.66667,113.333333 C1267.03742,113.70409 1267.63443,113.698904 1268.00585,113.327483 L1280,101.333333 L1291.99415,113.327483 C1292.36719,113.700521 1292.96514,113.701523 1293.33333,113.333333 C1293.70409,112.962577 1293.6989,112.365571 1293.32748,111.99415 L1281.33333,100 L1293.32748,88.0058501 C1293.70052,87.6328125 1293.70152,87.0348565 1293.33333,86.6666667 C1292.96258,86.2959099 1292.36557,86.301096 1291.99415,86.6725168 L1280,98.6666667 Z" id="Combined-Shape"></path>
        </g>
    </g>
</svg>