<?xml version="1.0" encoding="UTF-8"?>
<svg width="60px" height="60px" viewBox="0 0 60 60" version="1.1" xmlns="http://www.w3.org/2000/svg" xmlns:xlink="http://www.w3.org/1999/xlink">
    <!-- Generator: sketchtool 47.1 (45422) - http://www.bohemiancoding.com/sketch -->
    <title>FE921D9E-F04D-45B6-A63C-9E048644C201</title>
    <desc>Created with sketchtool.</desc>
    <defs></defs>
    <g id="Page-1" stroke="none" stroke-width="1" fill="none" fill-rule="evenodd">
        <g id="Mobile-title" transform="translate(-20.000000, -2518.000000)">
            <g id="Group-14" transform="translate(20.000000, 2518.000000)">
                <g id="Group-6">
                    <path d="M30,60 C52.8871981,60 60,46.5685425 60,30 C60,13.4314575 52.8839905,0 30,0 C7.11600955,2.80248057e-15 0,13.4314575 0,30 C0,46.5685425 7.11280185,60 30,60 Z" id="Oval-5" fill="#00ACE9"></path>
                    <path d="M21,32 L23,32 L23,30 L21,30 L21,32 Z M21,36 L23,36 L23,34 L21,34 L21,36 Z M21,28 L23,28 L23,26 L21,26 L21,28 Z M25,32 L39,32 L39,30 L25,30 L25,32 Z M25,36 L39,36 L39,34 L25,34 L25,36 Z M25,26 L25,28 L39,28 L39,26 L25,26 Z" id="Shape" fill="#EEFBFF" fill-rule="nonzero"></path>
                </g>
            </g>
        </g>
    </g>
</svg>