<?xml version="1.0" encoding="UTF-8"?>
<svg width="60px" height="60px" viewBox="0 0 60 60" version="1.1" xmlns="http://www.w3.org/2000/svg" xmlns:xlink="http://www.w3.org/1999/xlink">
    <!-- Generator: sketchtool 47.1 (45422) - http://www.bohemiancoding.com/sketch -->
    <title>ED2B3171-1C64-413A-A9AB-4318E28CB092</title>
    <desc>Created with sketchtool.</desc>
    <defs></defs>
    <g id="Page-1" stroke="none" stroke-width="1" fill="none" fill-rule="evenodd">
        <g id="Mobile-title" transform="translate(-20.000000, -1347.000000)">
            <g id="Group-3" transform="translate(20.000000, 1347.000000)">
                <g id="Group-12-Copy-3">
                    <path d="M30,60 C52.8871981,60 60,46.5685425 60,30 C60,13.4314575 52.8839905,0 30,0 C7.11600955,2.80248057e-15 0,13.4314575 0,30 C0,46.5685425 7.11280185,60 30,60 Z" id="Oval-5" fill="#00ACE9"></path>
                    <g id="ic_payment_black_24px" transform="translate(18.000000, 19.000000)">
                        <polygon id="Shape" points="0 0 24 0 24 24 0 24"></polygon>
                    </g>
                </g>
                <g id="ic_folder_special_black_24px" transform="translate(18.000000, 18.000000)">
                    <polygon id="Shape" points="0 0 24 0 24 24 0 24"></polygon>
                    <path d="M20,6 L12,6 L10,4 L4,4 C2.9,4 2,4.9 2,6 L2,18 C2,19.1 2.9,20 4,20 L20,20 C21.1,20 22,19.1 22,18 L22,8 C22,6.9 21.1,6 20,6 Z M17.94,17 L15,15.28 L12.06,17 L12.84,13.67 L10.25,11.43 L13.66,11.14 L15,8 L16.34,11.14 L19.75,11.43 L17.16,13.67 L17.94,17 Z" id="Shape" fill="#EEFBFF" fill-rule="nonzero"></path>
                </g>
            </g>
        </g>
    </g>
</svg>