<?xml version="1.0" encoding="UTF-8"?>
<svg width="82px" height="35px" viewBox="0 0 82 35" version="1.1" xmlns="http://www.w3.org/2000/svg" xmlns:xlink="http://www.w3.org/1999/xlink">
    <!-- Generator: sketchtool 47.1 (45422) - http://www.bohemiancoding.com/sketch -->
    <title>C8DF81EE-8D44-46E2-8411-EEA86E45A976</title>
    <desc>Created with sketchtool.</desc>
    <defs>
        <polygon id="path-1" points="21.8665704 34.4262295 7.77574935e-05 34.4262295 7.77574935e-05 0.149868852 21.8665704 0.149868852"></polygon>
    </defs>
    <g id="Page-1" stroke="none" stroke-width="1" fill="none" fill-rule="evenodd">
        <g id="Mobile-title" transform="translate(-20.000000, -9.000000)">
            <g id="Page-1" transform="translate(20.000000, 9.000000)">
                <path d="M31.5165268,20.4445902 C33.1207239,20.4445902 34.301062,21.357459 34.301062,23.0317213 C34.301062,24.7071311 33.1207239,25.6177049 31.5165268,25.6177049 C29.9077099,25.6177049 28.7296817,24.7071311 28.7296817,23.0317213 C28.7296817,21.357459 29.9077099,20.4445902 31.5165268,20.4445902 M31.5165268,24.6681148 C32.1407662,24.6681148 32.8198648,24.1918852 32.8198648,23.0317213 C32.8198648,21.8698361 32.1407662,21.3953279 31.5165268,21.3953279 C30.8870901,21.3953279 30.2114563,21.8698361 30.2114563,23.0317213 C30.2114563,24.1918852 30.8870901,24.6681148 31.5165268,24.6681148" id="Fill-1" fill="#FFFFFF"></path>
                <path d="M44.8173887,20.5244016 L40.2450225,20.5244016 C40.1826563,20.5244016 40.130107,20.5720246 40.130107,20.6305492 L40.130107,21.3879262 C40.130107,21.4447295 40.1826563,21.4929262 40.2450225,21.4929262 L41.819769,21.4929262 L41.819769,25.433582 C41.819769,25.4926803 41.8711634,25.5391557 41.9375718,25.5391557 L43.1259944,25.5391557 C43.1912479,25.5391557 43.2409099,25.4926803 43.2409099,25.433582 L43.2409099,21.4929262 L44.8173887,21.4929262 C44.8797549,21.4929262 44.9317268,21.4447295 44.9317268,21.3879262 L44.9317268,20.6305492 C44.9317268,20.5720246 44.8797549,20.5244016 44.8173887,20.5244016" id="Fill-3" fill="#FFFFFF"></path>
                <path d="M39.3641577,25.5387541 C39.4247915,25.5387541 39.4779183,25.4917049 39.4779183,25.4331803 L39.4715662,24.6729344 C39.4715662,24.6155574 39.4219042,24.5679344 39.359538,24.5679344 C39.3254676,24.5679344 38.4621577,24.5662131 38.2767915,24.5662131 C37.284707,24.5662131 36.6148479,23.9620328 36.6148479,23.0503115 C36.6148479,22.0456393 37.3459183,21.4925246 38.2958479,21.4925246 L39.2711859,21.4925246 C39.3300873,21.4925246 39.3809042,21.4483443 39.3861014,21.3938361 L39.3861014,20.6307213 C39.3861014,20.5721967 39.3341296,20.5245738 39.2711859,20.5245738 L38.0573549,20.5245738 C36.1338197,20.5245738 35.1336507,21.6468689 35.1336507,22.9843279 C35.1336507,24.3103115 36.1009042,25.5387541 38.031369,25.5387541 L39.3641577,25.5387541 Z" id="Fill-5" fill="#FFFFFF"></path>
                <path d="M68.6129803,25.4311721 L66.4180366,22.8956803 L68.1284873,20.8742869 L68.1256,20.8742869 C68.1256,20.8742869 68.1677549,20.8249426 68.216262,20.7681393 L68.3398394,20.624123 C68.3750648,20.5719098 68.3485014,20.5242869 68.2716986,20.5242869 L66.9498817,20.5242869 C66.8857831,20.5242869 66.8315014,20.5449426 66.7893465,20.5862541 L65.1048817,22.8004344 L65.0517549,22.8004344 L65.0517549,20.8742869 L65.0517549,20.6310082 C65.0517549,20.5719098 65.0061352,20.5271557 64.9455014,20.5242869 L63.7478394,20.5242869 C63.6848958,20.5242869 63.6323465,20.5719098 63.6323465,20.6310082 L63.6323465,25.4334672 C63.6323465,25.4925656 63.6837408,25.539041 63.7478394,25.539041 L64.9391493,25.539041 C65.000938,25.539041 65.0517549,25.4925656 65.0517549,25.4334672 L65.0517549,23.138959 L65.1048817,23.138959 L66.8597972,25.4587131 C66.9025296,25.5166639 66.9602761,25.539041 67.0359239,25.539041 L68.5483042,25.539041 C68.6320366,25.539041 68.6568676,25.4856803 68.6129803,25.4311721" id="Fill-7" fill="#FFFFFF"></path>
                <path d="M25.5376873,18.7624672 L23.8942225,18.7624672 C23.6245465,18.8014836 23.4091521,19.0045984 23.377969,19.2570574 L23.377969,25.433123 C23.377969,25.4922213 23.4270535,25.5392705 23.4894197,25.5392705 L24.7454056,25.5392705 C24.8077718,25.5392705 24.8585887,25.4922213 24.8585887,25.433123 L24.8585887,22.9934508 L25.8085183,22.9934508 C27.6771944,22.9934508 28.3435887,21.7741885 28.3435887,20.8836967 C28.3435887,20.4556639 28.1870958,18.7624672 25.5376873,18.7624672 M25.5376873,21.9273852 L24.8585887,21.9273852 L24.8585887,19.8273852 L25.5376873,19.8273852 C26.3917577,19.8273852 26.7786592,20.2823852 26.7786592,20.8441066 C26.7786592,21.3576311 26.4344901,21.9273852 25.5376873,21.9273852" id="Fill-9" fill="#FFFFFF"></path>
                <path d="M56.2200662,20.5244016 L52.9325592,20.5244016 L52.5924324,20.5244016 C52.2546155,20.5244016 51.9780099,20.7820246 51.9780099,21.0947295 L51.9780099,23.0180082 C51.9780099,23.9997295 51.5703197,24.5574344 50.8658127,24.5574344 L50.8277,24.5574344 C50.7682211,24.5597295 50.7197141,24.6021885 50.7174042,24.6572705 L50.7174042,25.3836639 L50.7174042,25.433582 C50.7174042,25.4898115 50.7630239,25.533418 50.8213479,25.538582 C50.8929535,25.538582 50.9997845,25.5362869 51.130869,25.5362869 C51.8734887,25.5362869 53.2432352,25.1925984 53.2432352,23.0180082 L53.2432352,21.4929262 L54.911531,21.4929262 L54.911531,25.433582 C54.911531,25.4926803 54.9623479,25.5391557 55.0224042,25.5391557 L56.2160239,25.5391557 C56.2789676,25.5391557 56.3286296,25.4926803 56.3286296,25.433582 L56.3286296,20.6305492 C56.3286296,20.5720246 56.2812775,20.5272705 56.2200662,20.5244016" id="Fill-11" fill="#FFFFFF"></path>
                <path d="M81.9747648,21.4497787 L81.9747648,21.0980574 C81.9747648,20.7859262 81.6981592,20.5271557 81.3620746,20.5271557 L80.241793,20.5271557 C80.1886662,20.5351885 80.1395817,20.5558443 80.0933845,20.6201066 L78.5221028,22.8928115 L76.9652577,20.6212541 L76.9652577,20.6201066 C76.8965394,20.5242869 76.8180042,20.5242869 76.7383141,20.5242869 L75.8646099,20.5242869 L75.6931028,20.5242869 C75.3552859,20.5242869 75.0798352,20.7824836 75.0798352,21.0951885 L75.0798352,23.2617459 L75.0798352,25.4392049 C75.0809901,25.4948607 75.1306521,25.539041 75.1924408,25.539041 L76.3837507,25.539041 C76.444962,25.539041 76.4969338,25.4925656 76.4969338,25.4334672 L76.4992437,22.6833852 L76.468638,21.6620738 L76.5200324,21.6620738 L78.3517507,24.3823197 C78.4487648,24.5183033 78.6191169,24.5160082 78.7092014,24.3805984 L80.5380324,21.6620738 L80.5905817,21.6620738 L80.5593986,22.6833852 L80.5593986,25.4334672 C80.5593986,25.4925656 80.6084831,25.539041 80.6720042,25.539041 L81.864469,25.539041 C81.9256803,25.539041 81.9747648,25.4925656 81.9747648,25.4334672 L81.9747648,21.4497787 Z" id="Fill-13" fill="#FFFFFF"></path>
                <path d="M71.3931268,20.4445902 C72.9996338,20.4445902 74.1799718,21.357459 74.1799718,23.0317213 C74.1799718,24.7071311 72.9996338,25.6177049 71.3931268,25.6177049 C69.7860423,25.6177049 68.6085915,24.7071311 68.6085915,23.0317213 C68.6085915,21.357459 69.7860423,20.4445902 71.3931268,20.4445902 M71.3931268,24.6681148 C72.020831,24.6681148 72.6958873,24.1918852 72.6958873,23.0317213 C72.6958873,21.8698361 72.020831,21.3953279 71.3931268,21.3953279 C70.7648451,21.3953279 70.0892113,21.8698361 70.0892113,23.0317213 C70.0892113,24.1918852 70.7648451,24.6681148 71.3931268,24.6681148" id="Fill-15" fill="#FFFFFF"></path>
                <path d="M49.8064535,24.5595574 L48.6405521,24.5595574 C47.675031,24.5595574 46.8804394,24.0684098 46.837707,23.4286557 L49.8411014,23.4286557 C50.1766085,23.4286557 50.4549465,23.1716066 50.4549465,22.8600492 L50.4549465,22.7458689 C50.3937352,21.9592295 50.044369,20.4444754 48.0272845,20.4444754 C46.5778479,20.4444754 45.3547775,21.4158689 45.3547775,23.0316066 C45.3547775,24.8028361 46.9676366,25.5389836 48.585693,25.5389836 L49.8064535,25.5389836 C49.8653549,25.5389836 49.9179042,25.4948033 49.9190592,25.4391475 L49.9190592,24.6542295 C49.913862,24.6020164 49.8653549,24.5595574 49.8064535,24.5595574 M47.9435521,21.3573443 C48.4655803,21.3573443 49.0817352,21.6861148 49.0609465,22.5295574 L46.837707,22.5295574 C46.8498338,21.8697213 47.3175803,21.3573443 47.9435521,21.3573443" id="Fill-17" fill="#FFFFFF"></path>
                <path d="M61.910693,24.446123 C61.910693,24.446123 61.1796225,24.5092377 60.6344958,24.5092377 C59.6701296,24.5092377 58.8743831,24.0680082 58.835693,23.4288279 L61.844862,23.4288279 C62.1792141,23.4288279 62.4575521,23.1729262 62.459862,22.8602213 C62.4211718,22.1200574 62.1451437,20.4446475 60.0223831,20.4446475 C58.5735239,20.4446475 57.3533408,21.416041 57.3533408,23.0312049 C57.3533408,24.8030082 58.9569606,25.5391557 60.5802141,25.5391557 C61.2119606,25.5391557 61.910693,25.4748934 61.910693,25.4748934 C61.9707493,25.4748934 62.0221437,25.4307131 62.0238761,25.3744836 L62.0238761,24.5413689 C62.0186789,24.4874344 61.9707493,24.446123 61.910693,24.446123 M59.9398056,21.3575164 C60.4624113,21.3575164 61.0774113,21.6862869 61.0566225,22.5291557 L58.835693,22.5291557 C58.8455099,21.8693197 59.3144113,21.3575164 59.9398056,21.3575164" id="Fill-19" fill="#FFFFFF"></path>
                <g id="Group-23" transform="translate(0.000000, 0.424016)">
                    <mask id="mask-2" fill="white">
                        <use xlink:href="#path-1"></use>
                    </mask>
                    <g id="Clip-22"></g>
                    <path d="M13.4661901,9.72380328 C12.3545704,11.2276557 11.2111901,12.3321639 11.2111901,14.4189672 C11.2111901,16.8431475 13.0024859,18.8381475 15.4734577,18.8381475 C17.4495423,18.8381475 18.9942606,17.7330656 20.0440915,16.1678197 C21.2798662,14.3879836 21.8665704,12.0561803 21.8665704,10.1839672 C21.8665704,5.33560656 18.4375845,1.03978689 13.7433732,0.149868852 C18.3734859,2.93552459 14.4865704,8.48503279 13.4661901,9.72380328 M7.62917606,16.5665902 C7.35083803,16.2292131 4.06621831,13.0757705 4.10837324,7.91355738 C4.13897887,6.6862623 4.16785211,3.17421311 7.45478169,1.2222459 C8.96773944,0.24052459 11.2025282,-0.157672131 12.8708239,0.700688525 C16.0226268,2.48454098 14.4213169,5.93978689 14.0217113,6.47109836 C13.1878521,6.28691803 12.3851761,6.34888525 11.5825,6.62429508 C7.81454225,7.94454098 6.6411338,12.9455246 7.62917606,16.5665902 M4.38555634,3.06462295 C4.23137324,3.3417541 3.18096479,4.76298361 3.08972535,7.91355738 C3.05854225,9.81618033 3.45988028,11.7188033 4.26255634,13.4676557 C4.69565493,14.4189672 5.28178169,15.3398689 6.02266901,16.2607705 C6.48637324,16.8431475 7.0118662,17.4260984 7.59857042,18.009623 C9.85299296,20.4022459 12.3233873,21.8762623 14.5472042,24.2688852 C16.0913451,25.864541 16.8940211,27.859541 16.8940211,29.639377 C16.8940211,30.9584754 16.4615,32.1553607 15.5664296,33.0452787 C14.6707817,33.9965902 13.4044014,34.4263443 12.0456268,34.4263443 C10.1925423,34.4263443 8.15409155,33.5978197 6.51755634,32.0021639 C6.36279577,31.879377 5.86906338,31.3268361 5.80669718,31.2350328 C3.15151408,28.1355246 -0.0297394366,20.924377 0.000288732394,14.1125738 C0.000288732394,9.93896721 1.17485211,5.91913115 4.38555634,3.06462295" id="Fill-21" fill="#FFFFFF" mask="url(#mask-2)"></path>
                </g>
            </g>
        </g>
    </g>
</svg>