<?xml version="1.0" encoding="UTF-8"?>
<svg width="138px" height="31px" viewBox="0 0 138 31" version="1.1" xmlns="http://www.w3.org/2000/svg" xmlns:xlink="http://www.w3.org/1999/xlink">
    <!-- Generator: sketchtool 47.1 (45422) - http://www.bohemiancoding.com/sketch -->
    <title>6B5E888A-361A-45A5-A02E-6E191E4254B5</title>
    <desc>Created with sketchtool.</desc>
    <defs>
        <polygon id="path-1" points="13.621 9.8507 13.621 0.5507 0.9173 0.5507 0.9173 9.8507 13.621 9.8507"></polygon>
        <polygon id="path-3" points="5.41558985e-16 30.9997 5.41558985e-16 0.211 19.5158 0.211 19.5158 30.9997"></polygon>
    </defs>
    <g id="Page-1" stroke="none" stroke-width="1" fill="none" fill-rule="evenodd">
        <g id="Tablet" transform="translate(-30.000000, -14.000000)">
            <g id="Page-1" transform="translate(30.000000, 13.000000)">
                <path d="M44.6584,13.1924 C47.6144,13.1924 49.7884,14.8864 49.7884,17.9904 C49.7884,21.0954 47.6144,22.7854 44.6584,22.7854 C41.6934,22.7854 39.5224,21.0954 39.5224,17.9904 C39.5224,14.8864 41.6934,13.1924 44.6584,13.1924 M44.6584,21.0244 C45.8074,21.0244 47.0574,20.1424 47.0574,17.9904 C47.0574,15.8354 45.8074,14.9554 44.6584,14.9554 C43.4994,14.9554 42.2554,15.8354 42.2554,17.9904 C42.2554,20.1424 43.4994,21.0244 44.6584,21.0244" id="Fill-1" fill="#FFFFFF"></path>
                <path d="M69.1623,13.3409 L60.7393,13.3409 C60.6223,13.3409 60.5273,13.4299 60.5273,13.5359 L60.5273,14.9419 C60.5273,15.0489 60.6223,15.1369 60.7393,15.1369 L63.6403,15.1369 L63.6403,22.4439 C63.6403,22.5529 63.7343,22.6399 63.8563,22.6399 L66.0483,22.6399 C66.1653,22.6399 66.2593,22.5529 66.2593,22.4439 L66.2593,15.1369 L69.1623,15.1369 C69.2773,15.1369 69.3723,15.0489 69.3723,14.9419 L69.3723,13.5359 C69.3723,13.4299 69.2773,13.3409 69.1623,13.3409" id="Fill-3" fill="#FFFFFF"></path>
                <path d="M59.1154,22.6387 C59.2294,22.6387 59.3264,22.5517 59.3264,22.4427 L59.3134,21.0337 C59.3134,20.9277 59.2204,20.8387 59.1084,20.8387 C59.0454,20.8387 57.4544,20.8347 57.1144,20.8347 C55.2864,20.8347 54.0514,19.7157 54.0514,18.0247 C54.0514,16.1607 55.3974,15.1367 57.1494,15.1367 L58.9444,15.1367 C59.0534,15.1367 59.1474,15.0537 59.1564,14.9527 L59.1564,13.5347 C59.1564,13.4297 59.0614,13.3407 58.9444,13.3407 L56.7094,13.3407 C53.1654,13.3407 51.3224,15.4217 51.3224,17.9027 C51.3224,20.3607 53.1044,22.6387 56.6614,22.6387 L59.1154,22.6387 Z" id="Fill-5" fill="#FFFFFF"></path>
                <path d="M113.0031,22.4385 L108.9591,17.7375 L112.1101,13.9885 L112.1061,13.9885 C112.1061,13.9885 112.1831,13.8985 112.2721,13.7925 L112.4991,13.5255 C112.5651,13.4295 112.5161,13.3395 112.3741,13.3395 L109.9401,13.3395 C109.8211,13.3395 109.7211,13.3775 109.6441,13.4545 L106.5391,17.5605 L106.4421,17.5605 L106.4421,13.9885 L106.4421,13.5365 C106.4421,13.4295 106.3571,13.3455 106.2461,13.3395 L104.0391,13.3395 C103.9251,13.3395 103.8261,13.4295 103.8261,13.5365 L103.8261,22.4435 C103.8261,22.5525 103.9211,22.6405 104.0391,22.6405 L106.2341,22.6405 C106.3481,22.6405 106.4421,22.5525 106.4421,22.4435 L106.4421,18.1875 L106.5391,18.1875 L109.7731,22.4885 C109.8521,22.5985 109.9591,22.6405 110.0981,22.6405 L112.8841,22.6405 C113.0371,22.6405 113.0831,22.5395 113.0031,22.4385" id="Fill-7" fill="#FFFFFF"></path>
                <path d="M33.6438,10.0743 L30.6158,10.0743 C30.1178,10.1463 29.7228,10.5213 29.6638,10.9913 L29.6638,22.4423 C29.6638,22.5523 29.7528,22.6393 29.8688,22.6393 L32.1828,22.6393 C32.2988,22.6393 32.3938,22.5523 32.3938,22.4423 L32.3938,17.9183 L34.1408,17.9183 C37.5848,17.9183 38.8138,15.6583 38.8138,14.0073 C38.8138,13.2143 38.5238,10.0743 33.6438,10.0743 M33.6438,15.9443 L32.3938,15.9443 L32.3938,12.0473 L33.6438,12.0473 C35.2158,12.0473 35.9298,12.8913 35.9298,13.9323 C35.9298,14.8863 35.2928,15.9443 33.6438,15.9443" id="Fill-9" fill="#FFFFFF"></path>
                <path d="M90.1711,13.3409 L84.1141,13.3409 L83.4881,13.3409 C82.8651,13.3409 82.3561,13.8189 82.3561,14.3989 L82.3561,17.9649 C82.3561,19.7849 81.6041,20.8199 80.3051,20.8199 L80.2371,20.8199 C80.1261,20.8229 80.0361,20.9019 80.0331,21.0039 L80.0331,22.3499 L80.0331,22.4439 C80.0331,22.5479 80.1181,22.6289 80.2251,22.6389 C80.3571,22.6389 80.5531,22.6359 80.7961,22.6359 C82.1631,22.6359 84.6871,21.9959 84.6871,17.9649 L84.6871,15.1369 L87.7591,15.1369 L87.7591,22.4439 C87.7591,22.5529 87.8531,22.6399 87.9651,22.6399 L90.1641,22.6399 C90.2781,22.6399 90.3721,22.5529 90.3721,22.4439 L90.3721,13.5359 C90.3721,13.4299 90.2841,13.3459 90.1711,13.3409" id="Fill-11" fill="#FFFFFF"></path>
                <g id="Group-15" transform="translate(124.000000, 12.789000)">
                    <mask id="mask-2" fill="white">
                        <use xlink:href="#path-1"></use>
                    </mask>
                    <g id="Clip-14"></g>
                    <path d="M13.6213,2.2667 L13.6213,1.6157 C13.6213,1.0367 13.1103,0.5567 12.4923,0.5567 L10.4283,0.5567 C10.3303,0.5727 10.2393,0.6097 10.1543,0.7277 L7.2593,4.9437 L4.3923,0.7317 L4.3923,0.7277 C4.2653,0.5507 4.1213,0.5507 3.9733,0.5507 L2.3643,0.5507 L2.0473,0.5507 C1.4263,0.5507 0.9173,1.0297 0.9173,1.6107 L0.9173,5.6267 L0.9173,9.6647 C0.9213,9.7667 1.0123,9.8507 1.1253,9.8507 L3.3203,9.8507 C3.4323,9.8507 3.5283,9.7627 3.5283,9.6547 L3.5323,4.5547 L3.4753,2.6607 L3.5703,2.6607 L6.9463,7.7057 C7.1233,7.9567 7.4393,7.9527 7.6013,7.7037 L10.9723,2.6607 L11.0703,2.6607 L11.0123,4.5547 L11.0123,9.6547 C11.0123,9.7627 11.1023,9.8507 11.2203,9.8507 L13.4173,9.8507 C13.5313,9.8507 13.6213,9.7627 13.6213,9.6547 L13.6213,2.2667 Z" id="Fill-13" fill="#FFFFFF" mask="url(#mask-2)"></path>
                </g>
                <path d="M118.1252,13.1924 C121.0872,13.1924 123.2602,14.8864 123.2602,17.9904 C123.2602,21.0954 121.0872,22.7854 118.1252,22.7854 C115.1632,22.7854 112.9952,21.0954 112.9952,17.9904 C112.9952,14.8864 115.1632,13.1924 118.1252,13.1924 M118.1252,21.0244 C119.2812,21.0244 120.5252,20.1424 120.5252,17.9904 C120.5252,15.8354 119.2812,14.9554 118.1252,14.9554 C116.9692,14.9554 115.7242,15.8354 115.7242,17.9904 C115.7242,20.1424 116.9692,21.0244 118.1252,21.0244" id="Fill-16" fill="#FFFFFF"></path>
                <path d="M78.3547,20.8233 L76.2067,20.8233 C74.4267,20.8233 72.9627,19.9123 72.8847,18.7253 L78.4177,18.7253 C79.0367,18.7253 79.5487,18.2493 79.5487,17.6723 L79.5487,17.4603 C79.4367,16.0023 78.7927,13.1933 75.0777,13.1933 C72.4067,13.1933 70.1547,14.9943 70.1547,17.9903 C70.1547,21.2753 73.1247,22.6393 76.1057,22.6393 L78.3547,22.6393 C78.4627,22.6393 78.5607,22.5553 78.5637,22.4543 L78.5637,20.9973 C78.5517,20.9013 78.4627,20.8233 78.3547,20.8233 M74.9217,14.8863 C75.8827,14.8863 77.0217,15.4943 76.9817,17.0583 L72.8847,17.0583 C72.9067,15.8353 73.7687,14.8863 74.9217,14.8863" id="Fill-18" fill="#FFFFFF"></path>
                <path d="M100.6555,20.6123 C100.6555,20.6123 99.3085,20.7293 98.3025,20.7293 C96.5265,20.7293 95.0605,19.9123 94.9895,18.7253 L100.5355,18.7253 C101.1495,18.7253 101.6625,18.2513 101.6675,17.6723 C101.5935,16.3003 101.0875,13.1923 97.1765,13.1923 C94.5065,13.1923 92.2595,14.9943 92.2595,17.9903 C92.2595,21.2753 95.2135,22.6393 98.2055,22.6393 C99.3675,22.6393 100.6555,22.5203 100.6555,22.5203 C100.7655,22.5203 100.8625,22.4373 100.8645,22.3353 L100.8645,20.7903 C100.8525,20.6883 100.7655,20.6123 100.6555,20.6123 M97.0235,14.8863 C97.9885,14.8863 99.1195,15.4933 99.0835,17.0593 L94.9895,17.0593 C95.0085,15.8353 95.8725,14.8863 97.0235,14.8863" id="Fill-20" fill="#FFFFFF"></path>
                <g id="Group-24" transform="translate(0.000000, 0.789000)">
                    <mask id="mask-4" fill="white">
                        <use xlink:href="#path-3"></use>
                    </mask>
                    <g id="Clip-23"></g>
                    <path d="M12.0178,8.8107 C11.0268,10.1627 10.0058,11.1547 10.0058,13.0297 C10.0058,15.2067 11.6048,16.9987 13.8088,16.9987 C15.5748,16.9987 16.9528,16.0047 17.8888,14.5997 C18.9928,13.0007 19.5158,10.9067 19.5158,9.2237 C19.5158,4.8697 16.4558,1.0107 12.2658,0.2107 C16.3988,2.7127 12.9288,7.6997 12.0178,8.8107 M6.8078,14.9577 C6.5598,14.6557 3.6288,11.8227 3.6658,7.1847 C3.6948,6.0817 3.7188,2.9277 6.6538,1.1747 C8.0028,0.2917 9.9978,-0.0653 11.4868,0.7067 C14.2998,2.3077 12.8708,5.4127 12.5138,5.8887 C11.7698,5.7237 11.0528,5.7807 10.3368,6.0277 C6.9738,7.2127 5.9268,11.7057 6.8078,14.9577 M3.9138,2.8297 C3.7768,3.0787 2.8388,4.3547 2.7568,7.1847 C2.7298,8.8937 3.0868,10.6027 3.8038,12.1737 C4.1908,13.0297 4.7138,13.8547 5.3748,14.6827 C5.7888,15.2067 6.2578,15.7297 6.7818,16.2537 C8.7928,18.4037 10.9978,19.7267 12.9838,21.8757 C14.3618,23.3097 15.0788,25.1007 15.0788,26.7007 C15.0788,27.8847 14.6918,28.9597 13.8918,29.7587 C13.0928,30.6147 11.9628,30.9997 10.7498,30.9997 C9.0958,30.9997 7.2778,30.2557 5.8168,28.8237 C5.6778,28.7117 5.2388,28.2157 5.1818,28.1327 C2.8118,25.3497 -0.0272,18.8727 -0.0002,12.7527 C-0.0002,9.0037 1.0478,5.3927 3.9138,2.8297" id="Fill-22" fill="#FFFFFF" mask="url(#mask-4)"></path>
                </g>
            </g>
        </g>
    </g>
</svg>