<?xml version="1.0" encoding="UTF-8"?>
<svg width="21px" height="33px" viewBox="0 0 21 33" version="1.1" xmlns="http://www.w3.org/2000/svg" xmlns:xlink="http://www.w3.org/1999/xlink">
    <!-- Generator: sketchtool 47.1 (45422) - http://www.bohemiancoding.com/sketch -->
    <title>4DDEA2A9-3D5E-4789-A177-7741573875E5</title>
    <desc>Created with sketchtool.</desc>
    <defs></defs>
    <g id="Page-1" stroke="none" stroke-width="1" fill="none" fill-rule="evenodd">
        <g id="title-page-3.3" transform="translate(-50.000000, -10.000000)" fill="#FFFFFF">
            <g id="Group-13">
                <g id="ic_launch_black_24px-copy-2">
                    <g id="Group-25">
                        <path d="M63.1162245,19.2214332 C62.0728729,20.6696142 61,21.7338954 61,23.7437002 C61,26.0784386 62.6806859,28 64.9995147,28 C66.8553057,28 68.3042705,26.9357189 69.2897929,25.4281591 C70.4496118,23.7140108 71,21.4675158 71,19.6642995 C71,14.9948227 67.7821902,10.856868 63.3770624,10 C67.7219346,12.683176 64.0738434,18.0280858 63.1162245,19.2214332 M57.2985843,26 C57.0382621,25.6700143 53.9616172,22.5810626 54.0003628,17.5256139 C54.0298257,16.3234931 54.0572705,12.8835909 57.1359333,10.9724409 C58.5529739,10.0105765 60.6456413,9.62063147 62.2079779,10.4617387 C65.1611211,12.2085247 63.6609389,15.5922413 63.2872051,16.1130066 C62.5058349,15.9327094 61.7531204,15.9926687 61.0016167,16.2631145 C57.472536,17.5562225 56.3731288,22.454016 57.2985843,26 M54.1539997,13 C54.0066847,13.2649685 53.0126147,14.6250307 52.9256948,17.6383815 C52.8963135,19.4583504 53.276231,21.2783193 54.0368822,22.9512655 C54.4469973,23.8616594 55.0019789,24.7417479 55.7042754,25.623065 C56.1433638,26.1804407 56.6403988,26.7378164 57.1961965,27.2960111 C59.3308353,29.5844869 61.6707356,30.9949218 63.7772171,33.283807 C65.2393488,34.8101401 66,36.7181587 66,38.4210009 C66,39.6831845 65.5894769,40.8278319 64.7423138,41.6788435 C63.8939265,42.5888279 62.6941869,43 61.4075274,43 C59.6528062,43 57.7226129,42.2075518 56.1723371,40.6812188 C56.0258383,40.5640921 55.5577766,40.0353837 55.4994219,39.9469244 C52.9844576,36.9827177 49.971234,30.0845278 50.0002073,23.5680236 C50.0002073,19.5762962 51.1122109,15.7303628 54.1539997,13" id="Page-1"></path>
                    </g>
                </g>
            </g>
        </g>
    </g>
</svg>